<svg xmlns="http://www.w3.org/2000/svg" viewBox="0 0 73.52 73.52" role="img" aria-label="Di Torlaschi — tenedor">
  <g transform="translate(-354.57 304.08) scale(1 -1)">
    <path d="M422.21 265.7 L408.35 271.58 C408.35 271.58 400.08 274.75 396.48 272.11 C393.66 270.03 391.34 270.19 390.48 270.35 L390.47 270.3 L387.25 271.3 L387.25 271.29 L358.57 280.18 L359.24 282.35 L380.07 275.9 L380.8 278.28 L359.98 284.73 L360.65 286.9 L381.48 280.45 L382.21 282.83 L361.39 289.28 L362.06 291.45 L382.89 285 L383.62 287.38 L362.8 293.83 L363.47 296 L384.3 289.55 L384.3 289.56 L395.37 286.13 L395.36 286.11 C396.16 285.76 398.17 284.58 399.32 281.27 C400.79 277.06 409.41 275 409.41 275 L424.09 271.7" fill="#3B824C"/>
    <path d="M373.9 261.77 L380.86 297.33 L374.94 298.93 L367.98 263.38 Z" fill="#C23836"/>
    <path d="M373.94 299.2 L370.69 300.08 L363.02 271.77 L366.15 270.92 Z" fill="#C23836"/>
    <path d="M372.82 288.11 L378.7 286.29 L378.25 284.06 L372.3 285.9 Z" fill="#3B824C"/>
    <path d="M365.37 280.45 L368.51 279.48 L367.9 277.29 L364.09 278.47 Z" fill="#3B824C"/>
  </g>
</svg>
